# xmcd
#
# Track frame offsets:
#	150
#	12801
#	26999
#	39478
#	56745
#	67095
#	86138
#	97581
#	114436
#
# Disc length: 1718 seconds
#
# Revision: 1
# Processed by: cddbd v1.4PL0 Copyright (c) Steve Scherf et al.
# Submitted via: audiograbber 1.81.02
#
DISCID=6f06b409
DTITLE=Bobby Moore - off the grill
DYEAR=2000
DGENRE=Country
TTITLE0=Let`s Talk About Love
TTITLE1=Jesse Goes To Nashville
TTITLE2=Yellow Brick Road
TTITLE3=Chance To Shine
TTITLE4=Off The Grill
TTITLE5=Detroit Diesel
TTITLE6=When I Say I Love You
TTITLE7=Old Enough To Understand
TTITLE8=The Answer Is You
EXTD=
EXTT0=
EXTT1=
EXTT2=
EXTT3=
EXTT4=
EXTT5=
EXTT6=
EXTT7=
EXTT8=
PLAYORDER=
